<?xml version="1.0" standalone="no"?><!DOCTYPE svg PUBLIC "-//W3C//DTD SVG 1.1//EN" "http://www.w3.org/Graphics/SVG/1.1/DTD/svg11.dtd"><svg t="1753340556151" class="icon" viewBox="0 0 1024 1024" version="1.1" xmlns="http://www.w3.org/2000/svg" p-id="1516" xmlns:xlink="http://www.w3.org/1999/xlink" width="200" height="200"><path d="M535.600762 0c206.583873 22.093206 345.986032 118.584889 418.283682 289.515683 72.297651 170.930794 59.201016 340.520635-39.334603 508.810158L1003.68254 905.057524 885.365841 1024l-96.17473-97.202794c-120.758857 82.590476-259.019175 107.796317-414.744381 75.658159-77.568-16.026413-143.059302-43.162413-196.477968-81.444571l-7.078603 5.827047-2.320254-2.519365c0.824889 4.644571 1.300317 9.451683 1.300317 14.336 0 42.772317-33.475048 77.470476-74.776381 77.470476C53.792508 1016.124952 20.31746 981.463365 20.31746 938.654476c0-42.772317 33.475048-77.429841 74.735746-77.429841 6.725079 0 13.21854 0.906159 19.390984 2.596571a392.102603 392.102603 0 0 1-61.163682-92.554158l75.836952-80.225524c83.427556 78.299429 171.771937 126.780952 265.037207 145.448635 93.261206 18.708317 183.300063 5.985524 270.108444-38.204953l-320.182857-335.396571-97.19873 94.996317-134.009905-156.200635 245.170794-243.947682 0.475428 0.353524-1.101206-1.381588c22.653968 9.256635 43.422476 14.457905 62.264889 15.599746l4.091936-0.788317 7.001397-1.852952c25.961651-7.952254 53.613714-22.170413 83.114667-42.650413l-2.832254 1.930159 2.084571-2.917588 75.991365 77.275429-0.154412 0.08127 0.94273 0.979301-120.283429 132.331683 318.610286 338.078476-318.415238-338.074413-0.195048 0.272254 319.553016 339.378794c68.758349-71.444317 80.083302-182.706794 33.946413-333.746794C776.996571 191.605841 681.138794 77.389206 535.600762 0z" p-id="1517"></path></svg>